HIERARCHY
ROOT pelvis
{
  OFFSET 0 100 0
  CHANNELS 6 Xposition Yposition Zposition Zrotation Xrotation Yrotation
  JOINT pelvis_right_femur
  {
    OFFSET -10.78128 -3.44521 -0.5502486
    CHANNELS 3 Zrotation Xrotation Yrotation
    JOINT right_femur_tibia
    {
      OFFSET -0.8047443 -44.0398 -0.1307829
      CHANNELS 3 Zrotation Xrotation Yrotation
      JOINT right_tibia_foot
      {
        OFFSET 3.006224 -47.83518 -5
        CHANNELS 3 Zrotation Xrotation Yrotation
        End Site
        {
          OFFSET 0 -5 15
        }
      }
    }
  }
  JOINT pelvis_left_femur
  {
    OFFSET 10.78128 -3.44521 -0.5502486
    CHANNELS 3 Zrotation Xrotation Yrotation
    JOINT left_femur_tibia
    {
      OFFSET 0.8047443 -44.0398 -0.1307829
      CHANNELS 3 Zrotation Xrotation Yrotation
      JOINT left_tibia_foot
      {
        OFFSET -4.370144 -48.10324 -4.275266
        CHANNELS 3 Zrotation Xrotation Yrotation
        End Site
        {
          OFFSET 0 -5 15
        }
      }
    }
  }
  JOINT pelvis_spine1
  {
    OFFSET 0 6.468898 -3.129235
    CHANNELS 3 Zrotation Xrotation Yrotation
    JOINT spine1
    {
      OFFSET 0 23.15396 4.99043
      CHANNELS 3 Zrotation Xrotation Yrotation
      JOINT spine2
      {
        OFFSET 0 20.79997 -5.064912
        CHANNELS 3 Zrotation Xrotation Yrotation
        JOINT neck
        {
          OFFSET 0 14.38658 9.616178
          CHANNELS 3 Zrotation Xrotation Yrotation
          End Site
          {
            OFFSET 0 20 0
          }
        }
      }
      JOINT right_manubrium
      {
        OFFSET -5.722621 16.35077 3.967754
        CHANNELS 3 Zrotation Xrotation Yrotation
        JOINT right_clavicle
        {
          OFFSET -13.16364 1.694482 -4.693211
          CHANNELS 3 Zrotation Xrotation Yrotation
          JOINT right_humerus
          {
            OFFSET -28.5034 -0.3100689 -2.792744
            CHANNELS 3 Zrotation Xrotation Yrotation
            JOINT right_radius
            {
              OFFSET -25.15693 0.02248979 -1.271978
              CHANNELS 3 Zrotation Xrotation Yrotation
              End Site
              {
                OFFSET -15 0 0
              }
            }
          }
        }
      }
      JOINT left_manubrium
      {
        OFFSET 5.722621 16.35077 3.967754
        CHANNELS 3 Zrotation Xrotation Yrotation
        JOINT left_clavicle
        {
          OFFSET 13.16364 1.694482 -4.693211
          CHANNELS 3 Zrotation Xrotation Yrotation
          JOINT left_humerus
          {
            OFFSET 29.39168 -1.063119 -2.237045
            CHANNELS 3 Zrotation Xrotation Yrotation
            JOINT left_radius
            {
              OFFSET 24.59957 -0.9528479 0.9047498
              CHANNELS 3 Zrotation Xrotation Yrotation
              End Site
              {
                OFFSET 15 -0 -0
              }
            }
          }
        }
      }
    }
  }
}
MOTION
Frames: 19
Frame Time: 0.0416666666667
0 103.5113 0 1.270795 -0.6321071 0.1084509 2.864979 -16.86468 7.839096 -0 35.96277 -0 -5.253852 -16.16394 -3.29553 -7.189763 11.82809 -23.24366 -0 4.495813 -0 6.010359 -18.47907 25.11158 -3.642846 -4.733223 5.618631 2.391633 10.01444 -7.885301 1.721353 21.58649 6.336354 2.064202 -25.82065 10.37346 5.970567 -22.0333 11.22607 83.57024 34.07872 -16.27326 -0 0 19.53438 -6.839857 6.9517 3.478499 7.671251 -20.26399 1.437361 -94.26536 21.44201 23.52221 0 0 -9.813386 15.53435 18.76226 -4.182904
0.2049527 103.2207 1.586723 0.4639558 -0.08583324 0.111789 3.850422 -19.8412 8.256301 -0 36.35173 -0 -5.202576 -15.08483 -3.37987 -6.512217 11.82894 -23.1345 -0 4.890333 -0 3.826433 -19.94717 24.13237 -3.280741 -4.236468 5.421232 2.555178 9.982074 -7.897048 1.660432 21.34243 6.525201 2.332715 -25.97254 10.29436 6.033369 -21.27421 11.29225 84.06569 34.53453 -17.03835 -0 0 18.31737 -6.724618 7.414991 3.579673 7.497803 -20.47672 1.067067 -93.94918 21.7203 22.93934 0 0 -11.45226 14.96196 17.93209 -3.380458
0.4138058 102.771 3.516247 -0.2578625 0.9824001 0.08486555 5.184484 -24.87817 8.014804 -0 32.7324 -0 -5.542359 -12.90195 -3.028489 -6.05111 11.98477 -21.97979 -0 5.242231 -0 4.633609 -20.98312 23.74244 -3.045741 -3.921308 5.088734 2.854713 9.794099 -8.058431 1.651092 21.07295 6.749417 2.544873 -26.4946 10.44328 6.052662 -20.70041 11.31069 84.50344 34.55803 -17.89868 -0 0 17.47693 -6.239094 7.604327 3.335907 7.512569 -20.55898 0.9593108 -93.7161 21.87219 22.15655 0 0 -12.48832 14.89676 17.4049 -3.300295
0.6296251 102.0979 5.835002 -0.7500336 1.713848 0.08331701 6.06994 -28.88128 7.41205 -0 28.55867 -0 -6.018358 -10.68817 -2.72309 -5.707616 12.39138 -20.69191 -0 5.666871 -0 5.152601 -21.97475 22.9491 -2.757689 -3.537816 4.721387 3.176456 9.589065 -8.231276 1.619781 20.75553 6.997031 2.79368 -27.01049 10.55578 6.064902 -20.03577 11.33862 85.00526 34.64108 -18.83805 -0 0 16.4724 -5.815001 7.892453 3.175433 7.51402 -20.68092 0.7958253 -93.37643 22.01983 21.2544 0 0 -13.81215 14.7452 16.73586 -3.110547
0.8580954 101.2222 8.612646 -1.072842 2.630837 0.1761798 6.80212 -32.52199 6.881335 -0 23.7922 -0 -6.33603 -8.527366 -2.405484 -5.556258 12.92219 -19.43563 -0 6.225225 -0 5.844924 -22.8163 22.09268 -2.495241 -3.171714 4.344545 3.502604 9.36543 -8.413681 1.576285 20.43739 7.251105 3.030511 -27.52236 10.66926 6.05047 -19.41844 11.3751 85.4863 34.72179 -19.70711 -0 0 15.50654 -5.450975 8.168255 3.079038 7.525533 -20.795 0.651243 -92.95223 22.06755 20.29051 0 0 -15.15956 14.6683 16.04273 -3.035325
1.090813 100.184 11.92073 -1.256566 3.402235 0.4234009 7.216302 -35.08947 6.161613 -0 19.23566 -0 -6.670381 -6.399377 -2.071052 -5.518876 13.65744 -18.21838 -0 7.326298 -0 6.021995 -23.36888 20.87991 -2.232685 -2.799653 3.975715 3.810636 9.147837 -8.592108 1.51352 20.11691 7.503528 3.268163 -27.96773 10.74113 6.017869 -18.81114 11.41856 85.97247 34.84443 -20.53013 -0 0 14.5127 -5.217465 8.489613 3.090207 7.534088 -20.93617 0.4821994 -92.43701 22.05986 19.27956 0 0 -16.62723 14.56218 15.28662 -2.932335
1.322279 99.10341 15.81657 -1.436762 4.061835 0.8754696 7.540793 -36.51907 5.556469 -0 15.69246 -0 -6.99009 -4.45733 -1.779624 -5.473734 14.47249 -17.13763 -0 9.289385 -0 5.365864 -23.41774 19.23508 -1.989433 -2.439231 3.649834 4.066713 8.966995 -8.746641 1.431093 19.82662 7.735805 3.489909 -28.288 10.75193 5.963342 -18.25291 11.47159 86.44934 35.01907 -21.24678 -0 0 13.53447 -5.181061 8.842432 3.23781 7.527035 -21.1043 0.2824935 -91.84613 21.99018 18.28416 0 0 -18.14056 14.41129 14.48908 -2.783175
1.544237 98.13435 20.35054 -1.71479 4.460186 1.532392 7.878678 -36.57585 5.075131 -0 13.71707 -0 -7.392836 -2.818089 -1.529483 -5.282074 15.22525 -16.10297 -0 12.56918 -0 3.683825 -22.58593 17.04789 -1.769331 -2.096794 3.391845 4.245576 8.84991 -8.8645 1.331349 19.5873 7.930339 3.687396 -28.4398 10.68205 5.888718 -17.75658 11.53163 86.91977 35.23582 -21.84526 -0 0 12.59137 -5.387905 9.227426 3.52969 7.495047 -21.3023 0.03939141 -91.21237 21.88642 17.36235 0 0 -19.63278 14.17003 13.66969 -2.527932
1.75612 97.4593 25.53327 -2.179694 4.557285 2.322188 8.390233 -35.25835 4.859116 -0 13.56003 -0 -7.882077 -1.732755 -1.36204 -4.811839 15.59497 -15.03631 -0 17.54626 -0 1.059224 -20.51907 14.38979 -1.584473 -1.78245 3.228655 4.323156 8.822448 -8.929553 1.21923 19.42617 8.06934 3.847698 -28.39064 10.52215 5.79363 -17.34719 11.59829 87.37417 35.47407 -22.29491 -0 0 11.72734 -5.870279 9.625564 3.964486 7.423913 -21.51726 -0.2508604 -90.58002 21.76998 16.58822 0 0 -20.99108 13.81243 12.85638 -2.133247
1.968507 97.23807 31.30327 -2.810628 4.314522 3.073584 9.0742 -32.64306 4.902368 -0 14.87227 -0 -8.421504 -1.446573 -1.319315 -4.032607 15.11867 -13.83205 -0 24.52693 -0 -2.019274 -17.03342 11.60472 -1.446293 -1.503652 3.183441 4.28161 8.903267 -8.924846 1.101463 19.36714 8.138111 3.95987 -28.12429 10.2719 5.678383 -17.04815 11.67145 87.79236 35.70677 -22.56047 -0 0 10.99513 -6.638692 10.01135 4.530615 7.297715 -21.72514 -0.5859196 -90.00212 21.66512 16.04091 0 0 -22.08942 13.3206 12.07661 -1.57513
2.202026 97.55481 37.48529 -3.421516 3.741666 3.547686 9.701247 -28.86874 5.074501 -0 16.66772 -0 -8.934655 -2.150651 -1.443715 -3.101674 13.25006 -12.49584 -0 33.42372 -0 -4.790375 -12.48555 9.282621 -1.367142 -1.266008 3.276494 4.108994 9.101168 -8.830637 0.9851665 19.42963 8.127965 4.01508 -27.64066 9.941635 5.542275 -16.88562 11.75251 88.13825 35.91226 -22.58938 -0 0 10.45848 -7.681991 10.35178 5.212575 7.09923 -21.89154 -0.9553169 -89.53121 21.58803 15.79895 0 0 -22.80822 12.6946 11.35057 -0.8511759
2.471427 98.36835 43.78999 -3.651185 2.81933 3.541748 9.80921 -24.01581 5.073648 -0 17.62022 -0 -9.38181 -3.812672 -1.694801 -2.391448 9.601114 -11.18646 -0 43.47896 -0 -6.512268 -7.927249 8.047326 -1.355903 -1.072805 3.522179 3.800855 9.410942 -8.62735 0.8766051 19.62125 8.038103 4.008903 -26.95633 9.55018 5.383139 -16.88504 11.84242 88.36288 36.07815 -22.31847 -0 0 10.18508 -8.968147 10.61532 5.994639 6.815649 -21.97845 -1.340961 -89.21154 21.54487 15.92904 0 0 -23.06428 11.9504 10.68649 0.02354133
2.768429 99.51374 49.89772 -3.141249 1.495799 3.048825 8.998218 -18.16971 4.629725 -0 16.80922 -0 -9.710658 -6.024779 -1.903484 -2.293956 4.246396 -10.13395 -0 53.08462 -0 -6.876369 -4.72375 8.212026 -1.413702 -0.9259831 3.923589 3.363188 9.809309 -8.30197 0.7802677 19.93013 7.87628 3.94281 -26.10609 9.12167 5.196777 -17.06643 11.93869 88.41235 36.19789 -21.68936 -0 0 10.23722 -10.44619 10.7814 6.862716 6.446556 -21.9525 -1.717512 -89.07164 21.53037 16.47169 0 0 -22.83458 11.11694 10.08091 1.020519
3.063507 100.7563 55.61222 -1.886592 -0.1552523 2.328849 7.400113 -11.67039 3.851618 -0 14.41055 -0 -9.677577 -8.009349 -1.865035 -2.772666 -2.222239 -9.351432 -0 60.06209 -0 -6.253434 -3.578868 9.525282 -1.530513 -0.8274932 4.466364 2.816277 10.2537 -7.856588 0.6986048 20.32049 7.656547 3.825041 -25.14228 8.679826 4.979267 -17.43554 12.03228 88.23846 36.26103 -20.67209 -0 0 10.65885 -12.05002 10.85005 7.802699 6.010935 -21.793 -2.054316 -89.12263 21.53289 17.42941 0 0 -22.15988 10.22711 9.527837 2.107581
3.320535 101.8354 60.95162 -0.4113317 -1.810849 1.706921 5.759257 -5.240533 3.193529 -0 11.54154 -0 -9.03503 -9.128465 -1.559446 -3.095476 -8.983566 -8.472571 -0 62.30146 -0 -5.414572 -3.951462 11.37557 -1.687305 -0.7807169 5.117728 2.195474 10.68789 -7.312806 0.6320914 20.73883 7.39532 3.670123 -24.12773 8.241956 4.732456 -17.97665 12.10796 87.80578 36.24983 -19.27979 -0 0 11.46411 -13.70615 10.84417 8.797376 5.547151 -21.49708 -2.319081 -89.36157 21.54224 18.76224 0 0 -21.12434 9.309297 9.031937 3.255012
3.520664 102.4754 66.07324 0.5857052 -3.217833 1.272416 4.848869 0.4156636 2.855463 -0 9.293066 -0 -8.101376 -9.623724 -1.216281 -2.386948 -15.1691 -7.082411 -0 58.66193 -0 -4.735673 -4.70395 13.37486 -1.864293 -0.7909493 5.834599 1.54486 11.05463 -6.706841 0.5789647 21.13002 7.109209 3.496982 -23.12175 7.816477 4.467789 -18.65403 12.14916 87.09297 36.14951 -17.56117 -0 0 12.6336 -15.34706 10.80034 9.826653 5.103753 -21.08043 -2.483052 -89.77202 21.55261 20.3901 0 0 -19.83024 8.387287 8.611422 4.431042
3.698214 102.4628 71.1326 0.7917251 -4.310465 0.899029 4.838533 5.068799 2.629746 -0 8.027521 -0 -7.444093 -10.50299 -0.9977218 -0.5493248 -20.07803 -5.237082 -0 49.79259 -0 -4.039403 -5.12354 15.35601 -2.04779 -0.8626031 6.5726 0.9083458 11.30853 -6.080541 0.5350425 21.45158 6.817216 3.326301 -22.17137 7.407632 4.20235 -19.41977 12.14442 86.10143 35.95977 -15.58902 -0 0 14.11227 -16.91984 10.75322 10.86866 4.726628 -20.57531 -2.527672 -90.31519 21.55873 22.19284 0 0 -18.39549 7.488648 8.283335 5.590886
3.934904 101.7654 76.24705 0.3845887 -4.891492 0.4542014 5.295181 8.816569 2.375545 -0 7.588607 -0 -7.063104 -12.41701 -0.7897234 1.687366 -23.55952 -3.444114 -0 38.01939 -0 -3.240681 -5.116074 16.97557 -2.229056 -0.9922596 7.287912 0.3247326 11.42539 -5.476036 0.4951346 21.67928 6.542648 3.177552 -21.31415 7.022973 3.95093 -20.21769 12.09156 84.87735 35.69309 -13.4688 -0 0 15.8013 -18.38228 10.72467 11.8948 4.447962 -20.02647 -2.452847 -90.92492 21.55577 24.01382 0 0 -16.9582 6.647696 8.046258 6.677267
4.311155 100.5445 81.54449 -0.262667 -4.783177 -0.09911399 5.646913 11.80694 2.140721 -0 7.848175 -0 -6.574543 -14.9504 -0.4143471 3.448897 -25.80815 -2.204215 -0 26.34054 -0 -2.523161 -4.873833 17.92126 -2.399463 -1.162379 7.937783 -0.1751956 11.40882 -4.931772 0.4558651 21.80868 6.3091 3.065663 -20.58205 6.675517 3.722704 -20.9847 11.99921 83.52513 35.36695 -11.34849 -0 0 17.55723 -19.69603 10.72166 12.86343 4.278235 -19.4834 -2.282364 -91.5225 21.54588 25.68509 0 0 -15.65413 5.896442 7.877576 7.637165
